<svg xmlns="http://www.w3.org/2000/svg" xmlns:xlink="http://www.w3.org/1999/xlink" version="1.1" x="0px" y="0px" width="100px" height="100px" viewBox="0 0 100 100" enable-background="new 0 0 100 100" xml:space="preserve">
<g id="Captions">
</g>
<g id="Your_Icon">
	<path d="M5.753,30.747C5.337,30.37,5,30.519,5,31.074v42.4c0,0.554,0.337,0.713,0.748,0.326l22.475-20.974   c0.406-0.387,0.406-1.001-0.01-1.387L5.753,30.747z"/>
	<path d="M94.247,30.747C94.663,30.37,95,30.519,95,31.074v42.4c0,0.554-0.337,0.713-0.753,0.326l-22.47-20.974   c-0.406-0.387-0.406-1.001,0.01-1.387L94.247,30.747z"/>
	<path d="M69.172,55.75c-0.416-0.377-1.11-0.377-1.525,0l-16.88,14.9c-0.421,0.377-1.114,0.377-1.535,0l-16.878-14.9   c-0.421-0.377-1.114-0.377-1.525,0L10.504,73.821c-0.412,0.366-0.303,0.673,0.262,0.673h38.168c0.564,0,1.046,0,1.065,0   s0.5,0,1.064,0h38.171c0.564,0,0.673-0.307,0.258-0.673L69.172,55.75z"/>
	<path d="M51.063,25.506c-0.564,0-1.045,0-1.064,0s-0.501,0-1.065,0H6.104c-0.564,0-0.684,0.307-0.257,0.674l26.159,23.605   c0.426,0.367,1.101,0.981,1.521,1.368l1.501,1.347c0.421,0.377,1.104,1.002,1.521,1.378l12.646,11.393   c0.416,0.387,0.758,0.704,0.758,0.724c0,0.029,0.01,0.039,0.025,0.029c0.015-0.019,0.024-0.019,0.039,0   c0.015,0.01,0.024,0,0.024-0.029c0-0.02,0.342-0.337,0.759-0.724l12.644-11.393c0.416-0.376,1.1-1.001,1.525-1.378l1.496-1.347   c0.426-0.387,1.101-1.001,1.525-1.368L94.148,26.18c0.426-0.367,0.307-0.674-0.258-0.674H51.063z"/>
</g>
</svg>